<?xml version="1.0" encoding="utf-8"?>
<!-- Generator: Adobe Illustrator 19.2.1, SVG Export Plug-In . SVG Version: 6.00 Build 0)  -->
<svg version="1.1" id="Layer_1" xmlns="http://www.w3.org/2000/svg" xmlns:xlink="http://www.w3.org/1999/xlink" x="0px" y="0px"
	 viewBox="0 0 1000 1000" style="enable-background:new 0 0 1000 1000;" xml:space="preserve">
<style type="text/css">
	.st0{fill:none;stroke:#FFFFFF;stroke-width:30;stroke-miterlimit:10;}
</style>
<path class="st0" d="M806,433.8h-48.3c-6.3-24.2-16-47.5-28.5-68.7l34.3-34.4c10.4-10.4,10.4-27.3,0-37.7l-56.4-56.5
	c-10.4-10.4-27.2-10.4-37.6,0l-34.4,34.3c-21.2-12.5-44.5-22.2-68.7-28.5V194c0-14.7-11.6-26.6-26.3-26.6h-79.8
	c-14.7,0-26.3,11.9-26.3,26.6v48.3c-24.2,6.3-47.5,16-68.7,28.5l-34.4-34.3c-10.4-10.4-27.3-10.4-37.7,0l-56.5,56.4
	c-10.4,10.4-10.4,27.2,0,37.6l34.3,34.4c-12.5,21.2-22.2,44.5-28.5,68.7H194c-14.7,0-26.6,11.6-26.6,26.3v79.8
	c0,14.7,11.9,26.3,26.6,26.3h48.3c6.3,24.2,16,47.5,28.5,68.7l-34.3,34.4c-10.4,10.4-10.4,27.3,0,37.7l56.4,56.5
	c10.4,10.4,27.2,10.4,37.6,0l34.4-34.3c21.2,12.5,44.5,22.2,68.7,28.5V806c0,14.7,11.6,26.6,26.3,26.6h79.8
	c14.7,0,26.3-11.9,26.3-26.6v-48.3c24.2-6.3,47.5-16,68.7-28.5l34.4,34.3c10.4,10.4,27.3,10.4,37.7,0l56.5-56.4
	c10.4-10.4,10.4-27.2,0-37.6L729,635.1c12.5-21.2,22.2-44.5,28.5-68.7H806c14.7,0,26.6-11.6,26.6-26.3v-79.8
	C832.6,445.4,820.6,433.8,806,433.8z M500,587c-48.1,0-87-39-87-87c0-48.1,39-87,87-87s87,38.9,87,87S548.1,587,500,587z"/>
</svg>
